<?xml version="1.0" standalone="no"?>
<!DOCTYPE svg PUBLIC "-//W3C//DTD SVG 20010904//EN"
 "http://www.w3.org/TR/2001/REC-SVG-20010904/DTD/svg10.dtd">
<svg version="1.0" xmlns="http://www.w3.org/2000/svg"
 width="1898.000000pt" height="486.000000pt" viewBox="0 0 1898.000000 486.000000"
 preserveAspectRatio="xMidYMid meet">

<g transform="translate(0.000000,486.000000) scale(0.100000,-0.100000)"
fill="#000000" stroke="none">
<path d="M4071 3874 c-23 -29 -25 -57 -11 -154 11 -80 31 -100 92 -94 54 5 88
36 88 81 0 32 -1 33 -41 33 -40 0 -40 -1 -37 -32 2 -17 -2 -33 -8 -35 -11 -4
-24 80 -24 148 0 40 18 37 22 -3 3 -30 6 -33 38 -33 30 0 36 4 39 25 1 14 -5
39 -15 57 -16 31 -21 33 -70 33 -45 0 -56 -4 -73 -26z"/>
<path d="M4296 3892 c-2 -4 -6 -56 -7 -114 -4 -119 2 -132 59 -148 44 -12 81
4 98 40 7 14 15 71 19 128 l7 103 -38 -3 c-30 -2 -39 -7 -41 -23 -1 -11 -5
-59 -8 -107 -4 -49 -11 -88 -16 -88 -6 0 -7 44 -3 110 l7 110 -36 0 c-20 0
-38 -4 -41 -8z"/>
<path d="M4535 3877 c-6 -19 -37 -178 -42 -218 l-5 -36 54 -11 c29 -5 56 -8
60 -5 16 9 7 45 -12 50 -23 6 -23 5 -10 58 5 22 11 54 14 70 3 17 8 42 12 58
3 15 4 27 2 27 -2 0 -18 4 -36 9 -24 7 -34 7 -37 -2z"/>
<path d="M3887 3853 l-48 -14 5 -52 c3 -29 9 -87 12 -129 7 -83 10 -86 62 -71
17 4 22 11 19 24 -3 10 1 23 9 30 11 9 16 6 23 -14 9 -23 13 -25 42 -17 17 5
33 11 36 13 4 5 -94 228 -104 238 -5 4 -30 0 -56 -8z m47 -110 c13 -37 13 -48
4 -55 -8 -5 -14 -1 -16 10 -2 9 -7 34 -12 55 -11 52 5 46 24 -10z"/>
<path d="M4678 3725 c-32 -63 -58 -117 -58 -119 0 -2 15 -9 32 -15 29 -10 34
-9 49 10 20 26 38 18 32 -13 -4 -19 2 -25 31 -34 35 -11 36 -11 41 23 13 84
15 99 19 118 19 104 18 112 -11 123 -77 31 -73 34 -135 -93z m81 -24 c-7 -23
-16 -41 -21 -41 -12 0 -10 13 8 55 20 48 29 39 13 -14z"/>
<path d="M3688 3793 c-42 -17 -43 -21 -23 -78 17 -48 17 -45 6 -45 -5 0 -14
12 -20 28 -26 61 -33 64 -84 42 l-45 -20 50 -113 c27 -61 53 -116 58 -120 6
-7 41 4 58 18 2 2 -10 30 -27 64 -17 33 -31 63 -31 66 0 16 22 -11 50 -60 31
-54 43 -62 68 -47 10 7 8 22 -7 72 -11 35 -18 66 -16 68 2 3 16 -23 31 -57 28
-63 38 -70 69 -48 17 13 15 20 -33 128 -27 62 -54 114 -59 116 -4 1 -25 -5
-45 -14z"/>
<path d="M4874 3666 c-30 -63 -54 -119 -54 -124 0 -16 120 -64 144 -58 16 4
33 27 60 84 59 126 58 131 -37 181 l-58 31 -55 -114z m116 22 c0 -19 -56 -135
-70 -143 -22 -14 -19 1 17 78 34 71 53 95 53 65z"/>
<path d="M3427 3662 c-22 -24 -22 -29 9 -69 31 -41 20 -42 -28 -3 -36 30 -38
30 -67 15 l-30 -15 62 -94 c34 -52 67 -102 72 -111 9 -14 14 -15 38 -4 15 7
27 15 27 19 0 4 -14 26 -30 48 -37 51 -31 53 22 7 41 -34 45 -35 86 -7 10 7
-4 36 -59 120 -39 62 -75 112 -79 112 -4 0 -14 -8 -23 -18z"/>
<path d="M5072 3552 l-84 -96 28 -23 28 -22 22 20 c25 23 41 11 25 -20 -9 -16
-6 -22 22 -40 l32 -20 14 27 c19 36 91 204 91 212 0 9 -76 60 -87 59 -5 0 -46
-44 -91 -97z m78 -36 c-19 -32 -40 -47 -40 -30 0 10 53 75 58 70 2 -3 -6 -21
-18 -40z"/>
<path d="M3236 3526 l-29 -24 83 -101 c46 -56 86 -101 90 -101 3 0 17 11 29
24 l23 25 -82 100 c-46 56 -83 101 -84 101 -1 -1 -14 -11 -30 -24z"/>
<path d="M5296 3390 c-36 -39 -66 -77 -66 -86 0 -43 64 -104 107 -104 10 1 31
11 47 24 l29 24 -29 25 -29 26 -22 -21 c-12 -11 -27 -17 -33 -13 -8 5 10 29
51 71 35 35 67 64 71 64 15 0 8 -24 -14 -47 -21 -22 -21 -23 -3 -43 23 -26 37
-25 63 3 34 36 29 79 -13 116 -57 49 -81 43 -159 -39z"/>
<path d="M9044 3420 c-103 -51 -79 -152 52 -210 101 -46 132 -101 81 -148 -37
-35 -91 -30 -134 13 -27 27 -40 34 -59 29 -30 -8 -30 -15 2 -54 37 -43 75 -60
134 -60 84 0 140 48 140 122 0 59 -32 95 -125 139 -66 32 -86 46 -91 66 -15
57 86 93 135 49 19 -18 22 -18 46 -2 l26 17 -23 18 c-24 20 -89 41 -123 41
-11 0 -38 -9 -61 -20z"/>
<path d="M9513 3430 c-53 -12 -122 -59 -151 -102 -24 -36 -27 -51 -27 -119 0
-71 2 -80 31 -116 56 -70 106 -97 185 -101 98 -6 153 12 210 67 95 93 92 222
-9 313 -62 56 -154 79 -239 58z m158 -65 c14 -8 40 -30 57 -49 54 -62 55 -144
2 -207 -38 -47 -86 -69 -149 -69 -128 0 -210 93 -187 213 9 46 72 111 122 125
45 12 117 6 155 -13z"/>
<path d="M10637 3424 c-102 -32 -178 -142 -163 -237 20 -124 113 -196 252
-197 136 0 233 80 242 200 6 80 -17 139 -71 185 -70 60 -165 78 -260 49z m183
-64 c168 -86 99 -320 -94 -320 -163 0 -254 162 -154 276 66 75 156 91 248 44z"/>
<path d="M11144 3426 c-39 -17 -74 -61 -74 -93 0 -51 28 -83 105 -118 40 -18
82 -44 94 -56 46 -49 9 -119 -62 -119 -28 0 -46 8 -75 35 -28 25 -44 32 -60
28 -26 -7 -27 -7 -4 -45 24 -42 80 -68 147 -68 49 0 59 4 93 34 33 31 37 40
37 83 0 71 -22 97 -120 144 -51 25 -86 48 -90 60 -10 32 4 57 40 69 37 12 70
6 97 -18 16 -13 20 -13 43 2 l26 17 -23 18 c-25 20 -90 41 -123 41 -11 -1 -34
-7 -51 -14z"/>
<path d="M10006 3419 c-9 -23 -116 -408 -116 -414 0 -4 12 -5 27 -3 25 3 29
10 62 130 20 70 39 129 42 132 3 4 32 -54 64 -126 32 -73 61 -136 65 -141 3
-4 23 30 43 75 84 194 89 203 97 188 4 -8 22 -70 40 -137 33 -120 34 -123 62
-123 17 0 26 4 23 13 -2 6 -29 102 -60 212 -31 110 -57 201 -59 202 -2 2 -34
-66 -71 -152 -38 -85 -71 -152 -74 -149 -3 3 -36 73 -73 156 -37 84 -69 145
-72 137z"/>
<path d="M11996 3229 c-54 -112 -100 -210 -103 -216 -3 -9 4 -13 21 -13 22 0
31 9 53 55 l27 55 101 0 101 0 27 -55 c22 -45 31 -55 52 -55 14 0 25 3 25 8 0
4 -46 101 -103 216 l-102 209 -99 -204z m139 11 c19 -38 35 -74 35 -80 0 -6
-30 -10 -75 -10 -41 0 -75 2 -75 4 0 11 69 156 74 156 3 0 22 -31 41 -70z"/>
<path d="M11650 3210 l0 -210 103 0 c101 0 104 1 103 23 -1 20 -7 22 -76 27
l-75 5 -3 183 -2 182 -25 0 -25 0 0 -210z"/>
<path d="M3051 3349 c-29 -34 -32 -41 -20 -57 55 -69 152 -182 158 -182 4 0
18 11 31 25 23 24 23 25 5 45 -23 25 -12 39 17 21 18 -11 24 -10 47 13 22 23
24 28 11 40 -16 14 -207 137 -212 135 -2 0 -18 -18 -37 -40z m107 -78 c19 -16
29 -31 24 -35 -5 -3 -24 10 -42 29 -41 42 -28 46 18 6z"/>
<path d="M5458 3227 c-73 -56 -87 -81 -68 -126 15 -36 37 -58 70 -66 20 -5 40
5 97 47 85 63 99 85 79 132 -17 40 -51 66 -86 66 -14 -1 -53 -23 -92 -53z
m132 -16 c0 -9 -132 -111 -144 -111 -19 0 2 24 62 69 68 51 82 58 82 42z"/>
<path d="M2916 3175 c-9 -13 -16 -26 -16 -29 0 -6 199 -146 208 -146 5 0 23
21 41 46 30 44 31 47 14 60 -24 18 -30 17 -41 -3 -8 -14 -20 -9 -92 40 -45 32
-85 57 -90 57 -4 0 -15 -11 -24 -25z"/>
<path d="M5600 3046 c-129 -69 -121 -62 -108 -91 14 -30 23 -31 67 -4 45 27
48 19 6 -21 -40 -39 -41 -42 -19 -75 l16 -25 32 19 c17 10 68 38 114 61 45 23
82 43 82 45 0 10 -24 55 -29 55 -3 0 -24 -11 -46 -25 -60 -36 -64 -30 -15 20
41 42 43 46 30 70 -7 14 -18 25 -24 24 -6 -1 -54 -24 -106 -53z"/>
<path d="M3973 3078 c-6 -7 -63 -116 -128 -243 -65 -126 -132 -257 -150 -290
-18 -33 -74 -141 -125 -240 -51 -99 -117 -225 -146 -281 l-53 -100 24 -37 c23
-33 25 -45 25 -151 l0 -116 95 0 c52 0 98 -1 102 -2 3 -2 14 19 23 47 13 40
22 51 46 57 16 4 38 21 50 38 l20 29 38 -31 38 -31 113 7 114 6 62 -82 c79
-106 83 -109 118 -95 23 9 34 7 64 -11 29 -19 36 -30 42 -70 10 -68 16 -72
104 -72 103 0 119 5 113 35 -5 29 34 114 57 122 21 8 125 84 130 96 2 4 14 -2
27 -14 13 -12 24 -17 24 -10 0 20 43 71 59 71 9 0 25 -7 35 -15 11 -8 28 -15
38 -15 20 0 48 48 48 83 0 14 6 40 14 58 12 28 12 38 1 60 -13 24 -21 27 -89
32 -78 6 -159 35 -182 65 -8 10 -13 44 -14 80 0 59 2 64 34 93 40 34 38 50 -5
66 -26 10 -29 14 -17 26 7 9 19 12 27 7 29 -15 97 20 87 46 -6 15 45 64 67 64
10 0 20 7 24 16 3 8 17 20 30 25 20 7 24 14 20 31 -4 12 -1 28 5 35 8 11 6 21
-10 43 -17 23 -20 34 -13 54 10 26 9 26 119 1 20 -5 22 -3 13 14 -27 49 -6
105 66 183 25 26 44 48 42 49 -69 14 -94 26 -97 46 -2 12 -12 25 -23 28 -10 4
-19 12 -19 19 0 7 -12 26 -27 41 -16 16 -23 25 -17 22 7 -4 23 7 36 26 20 25
23 37 16 58 l-9 26 -247 6 c-423 12 -828 9 -839 -5z m825 -14 c138 -3 252 -10
252 -14 0 -4 -14 -24 -30 -45 l-31 -38 26 -27 c14 -14 25 -36 25 -48 0 -15 6
-22 19 -22 13 0 21 -8 23 -22 2 -15 13 -26 33 -32 17 -6 31 -11 33 -12 1 -1
-12 -16 -29 -35 -40 -43 -59 -87 -59 -138 l0 -39 -52 14 c-57 15 -59 14 -78
-33 -11 -30 -11 -34 11 -52 21 -17 22 -23 12 -40 -8 -12 -9 -22 -3 -26 16 -10
-2 -37 -21 -32 -14 4 -19 0 -19 -13 0 -12 -12 -22 -34 -30 -38 -12 -71 -44
-62 -59 4 -6 -3 -20 -15 -32 -16 -16 -28 -20 -54 -15 -31 6 -36 4 -50 -23 -17
-33 -19 -44 -7 -38 4 2 20 -1 36 -8 l28 -12 -31 -22 c-30 -22 -31 -24 -31
-102 0 -75 2 -82 29 -109 32 -33 120 -62 192 -64 64 -2 77 -15 60 -61 -7 -20
-15 -53 -17 -73 -6 -45 -27 -70 -46 -54 -8 6 -25 15 -40 21 -27 10 -54 -6 -77
-46 -9 -17 -11 -16 -26 5 -9 12 -24 22 -33 22 -14 0 -14 -2 -3 -9 14 -9 7 -31
-9 -31 -5 0 -22 -12 -37 -26 -15 -15 -45 -37 -65 -50 -49 -31 -69 -64 -76
-120 l-5 -45 -80 3 -80 3 -15 53 c-12 44 -22 58 -58 83 -36 24 -47 27 -69 19
-14 -5 -28 -10 -30 -10 -6 0 -125 157 -125 164 0 3 18 6 40 6 37 0 40 2 30 19
-14 27 -13 78 3 85 10 5 10 7 0 12 -9 4 -13 28 -13 68 0 54 -5 73 -38 132
l-38 69 118 0 c65 0 118 -2 118 -5 0 -4 -4 -10 -9 -15 -5 -6 -21 -32 -36 -59
-25 -45 -27 -58 -26 -142 1 -64 -3 -104 -14 -129 -8 -21 -15 -39 -15 -42 0 -2
42 -2 93 -1 64 2 91 7 90 15 -1 6 -6 36 -11 66 l-9 55 105 89 c58 48 117 97
130 109 25 20 25 24 23 144 -2 127 -10 160 -38 160 -9 0 -36 20 -59 45 -45 46
-129 95 -164 95 -11 0 -29 9 -40 20 -11 11 -20 16 -20 12 0 -5 -42 -8 -92 -8
-51 1 -106 -2 -123 -6 -16 -3 -52 -11 -78 -17 -27 -6 -53 -9 -58 -6 -5 4 -9 1
-9 -4 0 -6 -17 -22 -38 -35 -21 -13 -49 -40 -62 -60 -18 -26 -30 -34 -43 -30
-11 3 -27 -2 -38 -12 -17 -15 -19 -31 -19 -145 l0 -128 73 -61 c155 -132 187
-162 183 -169 -3 -3 -7 -28 -10 -55 -3 -26 -8 -52 -11 -57 -4 -5 -38 -9 -78
-9 -69 0 -72 1 -109 37 l-38 37 -31 -37 c-19 -23 -39 -37 -54 -37 -28 0 -38
-13 -54 -67 -12 -42 -13 -43 -56 -43 -35 0 -43 3 -39 15 4 8 1 15 -5 15 -6 0
-11 -7 -11 -15 0 -10 -10 -15 -30 -15 l-30 0 0 102 c0 91 -3 106 -26 145 -17
29 -22 48 -16 56 11 14 75 137 297 567 87 168 188 364 226 435 l68 130 278 -2
c153 -2 392 -6 531 -9z m-618 -579 c0 -26 -5 -45 -11 -45 -6 0 -9 9 -6 19 6
26 -8 45 -28 38 -10 -4 -15 -15 -13 -29 3 -20 0 -21 -72 -19 -41 1 -76 4 -78
6 -2 1 11 13 28 25 34 24 107 48 153 49 26 1 27 -1 27 -44z m100 34 c42 -9
120 -54 120 -68 0 -3 -35 -4 -77 -1 -44 3 -77 9 -76 15 3 20 -19 36 -33 24
-11 -9 -14 -6 -14 15 0 29 10 31 80 15z m-314 -44 c-30 -24 -66 -39 -66 -26 0
6 77 49 90 50 3 0 -8 -10 -24 -24z m459 3 c47 -23 57 -36 27 -33 -18 1 -95 55
-80 55 4 0 28 -10 53 -22z m-510 -65 c-4 -10 -10 -30 -13 -45 -3 -23 -10 -28
-32 -28 -36 0 -43 20 -19 59 13 22 26 31 45 31 21 0 25 -3 19 -17z m177 -28
c-2 -25 -7 -45 -11 -45 -10 0 -32 40 -26 49 8 13 -19 31 -34 22 -7 -5 -11 -14
-10 -22 5 -32 -13 -49 -52 -49 -43 0 -50 16 -27 65 11 24 15 25 87 25 l76 0
-3 -45z m344 10 c21 -51 18 -55 -30 -55 -45 0 -61 11 -67 44 -7 33 -27 29 -44
-8 -10 -20 -20 -36 -24 -36 -4 0 -6 20 -6 45 l0 45 78 0 78 0 15 -35z m82 7
c17 -23 18 -30 7 -45 -23 -32 -49 -21 -66 28 l-17 45 29 0 c19 0 34 -9 47 -28z
m-606 -122 l17 -40 -29 0 c-18 0 -33 8 -44 25 -24 37 -20 55 12 55 22 0 30 -7
44 -40z m86 24 c16 -28 2 -64 -24 -64 -22 0 -54 41 -54 70 0 17 68 12 78 -6z
m294 -26 c-5 -42 -17 -49 -25 -16 -4 14 0 29 10 40 20 23 21 21 15 -24z m158
37 c0 -2 -8 -20 -17 -40 -15 -31 -21 -36 -48 -33 -23 2 -31 9 -33 26 -6 42 4
52 53 52 25 0 45 -2 45 -5z m70 -23 c0 -37 -17 -52 -56 -52 l-31 0 19 40 c15
30 26 40 44 40 20 0 24 -5 24 -28z m-432 6 c20 -20 15 -58 -8 -58 -16 0 -20 7
-20 35 0 37 8 43 28 23z m62 -48 c0 -5 -4 -10 -10 -10 -5 0 -10 5 -10 10 0 6
5 10 10 10 6 0 10 -4 10 -10z m-200 -75 c15 -5 18 -10 11 -19 -7 -8 -4 -22 10
-45 11 -18 18 -35 16 -38 -3 -2 -36 4 -74 14 l-68 18 -3 73 -3 73 45 -35 c25
-19 55 -37 66 -41z m573 -1 c-1 -36 -3 -68 -6 -70 -6 -7 -141 -43 -145 -39 -2
2 4 17 12 34 9 16 16 38 16 49 0 12 14 24 39 35 21 9 46 26 56 37 10 11 21 20
24 20 3 0 5 -30 4 -66z m-548 26 c10 -11 16 -20 13 -20 -11 0 -78 30 -78 35 0
14 49 2 65 -15z m25 10 c0 -5 -2 -10 -4 -10 -3 0 -8 5 -11 10 -3 6 -1 10 4 10
6 0 11 -4 11 -10z m100 -20 c0 -30 -13 -37 -37 -22 -18 12 -4 52 18 52 14 0
19 -7 19 -30z m52 -5 c3 -29 1 -35 -15 -35 -13 0 -17 5 -13 16 3 9 6 24 6 35
0 33 18 21 22 -16z m138 26 c0 -5 2 -16 5 -23 7 -17 -41 -43 -50 -28 -10 16 4
30 21 23 13 -5 15 -1 9 15 -4 13 -2 22 4 22 6 0 11 -4 11 -9z m100 4 c0 -2 -9
-9 -20 -15 -16 -9 -18 -8 -14 5 5 13 34 22 34 10z m70 0 c0 -4 -88 -45 -99
-45 -3 0 8 11 24 25 26 21 75 34 75 20z m-420 -25 c0 -5 -4 -10 -10 -10 -5 0
-10 5 -10 10 0 6 5 10 10 10 6 0 10 -4 10 -10z m287 -12 c-3 -8 -6 -5 -6 6 -1
11 2 17 5 13 3 -3 4 -12 1 -19z m-97 -14 c0 -8 -4 -14 -10 -14 -5 0 -10 9 -10
21 0 11 5 17 10 14 6 -3 10 -13 10 -21z"/>
<path d="M4350 3030 c0 -5 4 -10 9 -10 6 0 13 5 16 10 3 6 -1 10 -9 10 -9 0
-16 -4 -16 -10z"/>
<path d="M4626 3031 c-4 -5 -2 -12 3 -15 5 -4 12 -2 15 3 4 5 2 12 -3 15 -5 4
-12 2 -15 -3z"/>
<path d="M4346 2991 c-4 -5 -2 -12 3 -15 5 -4 12 -2 15 3 4 5 2 12 -3 15 -5 4
-12 2 -15 -3z"/>
<path d="M4590 2990 c0 -5 7 -10 15 -10 8 0 15 5 15 10 0 6 -7 10 -15 10 -8 0
-15 -4 -15 -10z"/>
<path d="M4570 2950 c0 -5 5 -10 10 -10 6 0 10 5 10 10 0 6 -4 10 -10 10 -5 0
-10 -4 -10 -10z"/>
<path d="M4346 2941 c-4 -5 -2 -12 3 -15 5 -4 12 -2 15 3 4 5 2 12 -3 15 -5 4
-12 2 -15 -3z"/>
<path d="M4540 2920 c0 -5 5 -10 10 -10 6 0 10 5 10 10 0 6 -4 10 -10 10 -5 0
-10 -4 -10 -10z"/>
<path d="M4496 2901 c-4 -5 -2 -12 3 -15 5 -4 12 -2 15 3 4 5 2 12 -3 15 -5 4
-12 2 -15 -3z"/>
<path d="M4340 2891 c0 -6 5 -13 10 -16 6 -3 10 1 10 9 0 9 -4 16 -10 16 -5 0
-10 -4 -10 -9z"/>
<path d="M4456 2881 c-4 -5 -2 -12 3 -15 5 -4 12 -2 15 3 4 5 2 12 -3 15 -5 4
-12 2 -15 -3z"/>
<path d="M4295 2840 c3 -5 8 -10 11 -10 2 0 4 5 4 10 0 6 -5 10 -11 10 -5 0
-7 -4 -4 -10z"/>
<path d="M4330 2840 c0 -5 5 -10 10 -10 6 0 10 5 10 10 0 6 -4 10 -10 10 -5 0
-10 -4 -10 -10z"/>
<path d="M4480 2840 c0 -5 5 -10 10 -10 6 0 10 5 10 10 0 6 -4 10 -10 10 -5 0
-10 -4 -10 -10z"/>
<path d="M4265 2820 c3 -5 8 -10 11 -10 2 0 4 5 4 10 0 6 -5 10 -11 10 -5 0
-7 -4 -4 -10z"/>
<path d="M4490 2800 c0 -5 4 -10 9 -10 6 0 13 5 16 10 3 6 -1 10 -9 10 -9 0
-16 -4 -16 -10z"/>
<path d="M4260 2780 c0 -5 5 -10 10 -10 6 0 10 5 10 10 0 6 -4 10 -10 10 -5 0
-10 -4 -10 -10z"/>
<path d="M4520 2770 c0 -5 5 -10 10 -10 6 0 10 5 10 10 0 6 -4 10 -10 10 -5 0
-10 -4 -10 -10z"/>
<path d="M4540 2740 c0 -5 4 -10 9 -10 6 0 13 5 16 10 3 6 -1 10 -9 10 -9 0
-16 -4 -16 -10z"/>
<path d="M4270 2720 c0 -5 5 -10 10 -10 6 0 10 5 10 10 0 6 -4 10 -10 10 -5 0
-10 -4 -10 -10z"/>
<path d="M4565 2700 c4 -6 11 -8 16 -5 14 9 11 15 -7 15 -8 0 -12 -5 -9 -10z"/>
<path d="M4275 2680 c4 -6 11 -8 16 -5 14 9 11 15 -7 15 -8 0 -12 -5 -9 -10z"/>
<path d="M3796 2671 c-4 -5 -2 -12 3 -15 5 -4 12 -2 15 3 4 5 2 12 -3 15 -5 4
-12 2 -15 -3z"/>
<path d="M4576 2671 c-4 -5 -2 -12 3 -15 5 -4 12 -2 15 3 4 5 2 12 -3 15 -5 4
-12 2 -15 -3z"/>
<path d="M3830 2630 c0 -5 5 -10 10 -10 6 0 10 5 10 10 0 6 -4 10 -10 10 -5 0
-10 -4 -10 -10z"/>
<path d="M4270 2630 c0 -5 7 -10 15 -10 8 0 15 5 15 10 0 6 -7 10 -15 10 -8 0
-15 -4 -15 -10z"/>
<path d="M4566 2621 c-4 -5 -2 -12 3 -15 5 -4 12 -2 15 3 4 5 2 12 -3 15 -5 4
-12 2 -15 -3z"/>
<path d="M4530 2610 c0 -5 5 -10 10 -10 6 0 10 5 10 10 0 6 -4 10 -10 10 -5 0
-10 -4 -10 -10z"/>
<path d="M3750 2590 c0 -5 5 -10 10 -10 6 0 10 5 10 10 0 6 -4 10 -10 10 -5 0
-10 -4 -10 -10z"/>
<path d="M3875 2590 c4 -6 11 -8 16 -5 14 9 11 15 -7 15 -8 0 -12 -5 -9 -10z"/>
<path d="M4280 2590 c0 -5 5 -10 10 -10 6 0 10 5 10 10 0 6 -4 10 -10 10 -5 0
-10 -4 -10 -10z"/>
<path d="M4500 2590 c0 -5 5 -10 10 -10 6 0 10 5 10 10 0 6 -4 10 -10 10 -5 0
-10 -4 -10 -10z"/>
<path d="M3780 2580 c0 -5 5 -10 10 -10 6 0 10 5 10 10 0 6 -4 10 -10 10 -5 0
-10 -4 -10 -10z"/>
<path d="M3810 2560 c0 -5 5 -10 10 -10 6 0 10 5 10 10 0 6 -4 10 -10 10 -5 0
-10 -4 -10 -10z"/>
<path d="M4470 2560 c0 -5 5 -10 10 -10 6 0 10 5 10 10 0 6 -4 10 -10 10 -5 0
-10 -4 -10 -10z"/>
<path d="M4575 2559 c-10 -15 3 -25 16 -12 7 7 7 13 1 17 -6 3 -14 1 -17 -5z"/>
<path d="M4626 2561 c-4 -5 -2 -12 3 -15 5 -4 12 -2 15 3 4 5 2 12 -3 15 -5 4
-12 2 -15 -3z"/>
<path d="M3912 2551 c4 -13 18 -16 19 -4 0 4 -5 9 -11 12 -7 2 -11 -2 -8 -8z"/>
<path d="M4670 2540 c0 -5 5 -10 10 -10 6 0 10 5 10 10 0 6 -4 10 -10 10 -5 0
-10 -4 -10 -10z"/>
<path d="M4530 2530 c0 -5 5 -10 10 -10 6 0 10 5 10 10 0 6 -4 10 -10 10 -5 0
-10 -4 -10 -10z"/>
<path d="M4710 2530 c0 -5 5 -10 10 -10 6 0 10 5 10 10 0 6 -4 10 -10 10 -5 0
-10 -4 -10 -10z"/>
<path d="M4450 2520 c0 -5 5 -10 10 -10 6 0 10 5 10 10 0 6 -4 10 -10 10 -5 0
-10 -4 -10 -10z"/>
<path d="M4760 2520 c0 -5 5 -10 10 -10 6 0 10 5 10 10 0 6 -4 10 -10 10 -5 0
-10 -4 -10 -10z"/>
<path d="M4800 2520 c0 -5 5 -10 10 -10 6 0 10 5 10 10 0 6 -4 10 -10 10 -5 0
-10 -4 -10 -10z"/>
<path d="M4850 2514 c0 -8 5 -12 10 -9 6 4 8 11 5 16 -9 14 -15 11 -15 -7z"/>
<path d="M3840 2510 c0 -5 7 -10 16 -10 8 0 12 5 9 10 -3 6 -10 10 -16 10 -5
0 -9 -4 -9 -10z"/>
<path d="M4506 2501 c-4 -5 -2 -12 3 -15 5 -4 12 -2 15 3 4 5 2 12 -3 15 -5 4
-12 2 -15 -3z"/>
<path d="M3640 2340 c0 -5 5 -10 10 -10 6 0 10 5 10 10 0 6 -4 10 -10 10 -5 0
-10 -4 -10 -10z"/>
<path d="M3660 2310 c0 -5 7 -10 16 -10 8 0 12 5 9 10 -3 6 -10 10 -16 10 -5
0 -9 -4 -9 -10z"/>
<path d="M3710 2290 c0 -5 5 -10 10 -10 6 0 10 5 10 10 0 6 -4 10 -10 10 -5 0
-10 -4 -10 -10z"/>
<path d="M3590 2244 c0 -8 5 -12 10 -9 6 4 8 11 5 16 -9 14 -15 11 -15 -7z"/>
<path d="M3626 2241 c-4 -5 -2 -12 3 -15 5 -4 12 -2 15 3 4 5 2 12 -3 15 -5 4
-12 2 -15 -3z"/>
<path d="M3670 2220 c0 -5 5 -10 10 -10 6 0 10 5 10 10 0 6 -4 10 -10 10 -5 0
-10 -4 -10 -10z"/>
<path d="M3710 2210 c0 -5 5 -10 10 -10 6 0 10 5 10 10 0 6 -4 10 -10 10 -5 0
-10 -4 -10 -10z"/>
<path d="M3545 2169 c-10 -15 3 -25 16 -12 7 7 7 13 1 17 -6 3 -14 1 -17 -5z"/>
<path d="M3586 2161 c-4 -7 -5 -15 -2 -18 9 -9 19 4 14 18 -4 11 -6 11 -12 0z"/>
<path d="M4640 2160 c0 -5 5 -10 10 -10 6 0 10 5 10 10 0 6 -4 10 -10 10 -5 0
-10 -4 -10 -10z"/>
<path d="M3610 2130 c0 -5 4 -10 9 -10 6 0 13 5 16 10 3 6 -1 10 -9 10 -9 0
-16 -4 -16 -10z"/>
<path d="M3650 2104 c0 -8 5 -12 10 -9 6 3 10 10 10 16 0 5 -4 9 -10 9 -5 0
-10 -7 -10 -16z"/>
<path d="M4100 2100 c0 -5 5 -10 10 -10 6 0 10 5 10 10 0 6 -4 10 -10 10 -5 0
-10 -4 -10 -10z"/>
<path d="M3670 2069 c0 -5 5 -7 10 -4 6 3 10 8 10 11 0 2 -4 4 -10 4 -5 0 -10
-5 -10 -11z"/>
<path d="M4120 2059 c0 -5 5 -7 10 -4 6 3 10 8 10 11 0 2 -4 4 -10 4 -5 0 -10
-5 -10 -11z"/>
<path d="M3670 2030 c0 -5 5 -10 10 -10 6 0 10 5 10 10 0 6 -4 10 -10 10 -5 0
-10 -4 -10 -10z"/>
<path d="M4140 2034 c0 -10 31 -36 37 -31 3 3 -2 13 -10 22 -16 15 -27 19 -27
9z"/>
<path d="M4620 2030 c0 -5 4 -10 9 -10 6 0 13 5 16 10 3 6 -1 10 -9 10 -9 0
-16 -4 -16 -10z"/>
<path d="M4590 2000 c0 -5 7 -10 15 -10 8 0 15 5 15 10 0 6 -7 10 -15 10 -8 0
-15 -4 -15 -10z"/>
<path d="M3660 1990 c0 -5 5 -10 10 -10 6 0 10 5 10 10 0 6 -4 10 -10 10 -5 0
-10 -4 -10 -10z"/>
<path d="M4195 1990 c3 -5 8 -10 11 -10 2 0 4 5 4 10 0 6 -5 10 -11 10 -5 0
-7 -4 -4 -10z"/>
<path d="M3795 1980 c4 -6 11 -8 16 -5 14 9 11 15 -7 15 -8 0 -12 -5 -9 -10z"/>
<path d="M3760 1970 c0 -5 5 -10 11 -10 5 0 7 5 4 10 -3 6 -8 10 -11 10 -2 0
-4 -4 -4 -10z"/>
<path d="M4565 1971 c-3 -5 -1 -12 5 -16 5 -3 10 1 10 9 0 18 -6 21 -15 7z"/>
<path d="M3670 1940 c0 -5 5 -10 10 -10 6 0 10 5 10 10 0 6 -4 10 -10 10 -5 0
-10 -4 -10 -10z"/>
<path d="M3725 1941 c-6 -11 9 -23 19 -14 9 9 7 23 -3 23 -6 0 -12 -4 -16 -9z"/>
<path d="M4565 1920 c3 -5 8 -10 11 -10 2 0 4 5 4 10 0 6 -5 10 -11 10 -5 0
-7 -4 -4 -10z"/>
<path d="M3430 1910 c0 -5 5 -10 10 -10 6 0 10 5 10 10 0 6 -4 10 -10 10 -5 0
-10 -4 -10 -10z"/>
<path d="M3480 1910 c0 -5 5 -10 10 -10 6 0 10 5 10 10 0 6 -4 10 -10 10 -5 0
-10 -4 -10 -10z"/>
<path d="M3705 1890 c4 -6 11 -8 16 -5 14 9 11 15 -7 15 -8 0 -12 -5 -9 -10z"/>
<path d="M4186 1881 c-4 -5 -2 -12 3 -15 5 -4 12 -2 15 3 4 5 2 12 -3 15 -5 4
-12 2 -15 -3z"/>
<path d="M4560 1880 c0 -5 5 -10 10 -10 6 0 10 5 10 10 0 6 -4 10 -10 10 -5 0
-10 -4 -10 -10z"/>
<path d="M3496 1871 c-4 -5 -2 -12 3 -15 5 -4 12 -2 15 3 4 5 2 12 -3 15 -5 4
-12 2 -15 -3z"/>
<path d="M3700 1850 c0 -5 7 -10 16 -10 8 0 12 5 9 10 -3 6 -10 10 -16 10 -5
0 -9 -4 -9 -10z"/>
<path d="M4540 1840 c0 -5 5 -10 10 -10 6 0 10 5 10 10 0 6 -4 10 -10 10 -5 0
-10 -4 -10 -10z"/>
<path d="M3520 1830 c0 -5 4 -10 9 -10 6 0 13 5 16 10 3 6 -1 10 -9 10 -9 0
-16 -4 -16 -10z"/>
<path d="M4500 1820 c0 -5 7 -10 16 -10 8 0 12 5 9 10 -3 6 -10 10 -16 10 -5
0 -9 -4 -9 -10z"/>
<path d="M3536 1801 c-4 -5 -2 -12 3 -15 5 -4 12 -2 15 3 4 5 2 12 -3 15 -5 4
-12 2 -15 -3z"/>
<path d="M4390 1790 c0 -5 5 -10 10 -10 6 0 10 5 10 10 0 6 -4 10 -10 10 -5 0
-10 -4 -10 -10z"/>
<path d="M4626 1781 c-4 -5 -2 -12 3 -15 5 -4 12 -2 15 3 4 5 2 12 -3 15 -5 4
-12 2 -15 -3z"/>
<path d="M4430 1770 c0 -5 5 -10 10 -10 6 0 10 5 10 10 0 6 -4 10 -10 10 -5 0
-10 -4 -10 -10z"/>
<path d="M4476 1771 c-4 -5 -2 -12 3 -15 5 -4 12 -2 15 3 4 5 2 12 -3 15 -5 4
-12 2 -15 -3z"/>
<path d="M4530 1770 c0 -5 5 -10 10 -10 6 0 10 5 10 10 0 6 -4 10 -10 10 -5 0
-10 -4 -10 -10z"/>
<path d="M4580 1760 c0 -5 5 -10 10 -10 6 0 10 5 10 10 0 6 -4 10 -10 10 -5 0
-10 -4 -10 -10z"/>
<path d="M4670 1760 c0 -5 5 -10 10 -10 6 0 10 5 10 10 0 6 -4 10 -10 10 -5 0
-10 -4 -10 -10z"/>
<path d="M3530 1746 c0 -9 5 -16 10 -16 6 0 10 4 10 9 0 6 -4 13 -10 16 -5 3
-10 -1 -10 -9z"/>
<path d="M4706 1741 c-4 -5 -2 -12 3 -15 5 -4 12 -2 15 3 4 5 2 12 -3 15 -5 4
-12 2 -15 -3z"/>
<path d="M4326 1711 c-4 -5 -2 -12 3 -15 5 -4 12 -2 15 3 4 5 2 12 -3 15 -5 4
-12 2 -15 -3z"/>
<path d="M3510 1700 c0 -5 5 -10 10 -10 6 0 10 5 10 10 0 6 -4 10 -10 10 -5 0
-10 -4 -10 -10z"/>
<path d="M4350 1680 c0 -5 5 -10 10 -10 6 0 10 5 10 10 0 6 -4 10 -10 10 -5 0
-10 -4 -10 -10z"/>
<path d="M4535 1680 c-3 -5 1 -10 9 -10 9 0 16 5 16 10 0 6 -4 10 -9 10 -6 0
-13 -4 -16 -10z"/>
<path d="M4250 1670 c0 -5 5 -10 10 -10 6 0 10 5 10 10 0 6 -4 10 -10 10 -5 0
-10 -4 -10 -10z"/>
<path d="M4290 1670 c0 -5 5 -10 10 -10 6 0 10 5 10 10 0 6 -4 10 -10 10 -5 0
-10 -4 -10 -10z"/>
<path d="M4410 1670 c0 -5 5 -10 10 -10 6 0 10 5 10 10 0 6 -4 10 -10 10 -5 0
-10 -4 -10 -10z"/>
<path d="M4220 1661 c0 -6 5 -13 10 -16 6 -3 10 1 10 9 0 9 -4 16 -10 16 -5 0
-10 -4 -10 -9z"/>
<path d="M4446 1661 c-4 -7 -5 -15 -2 -18 9 -9 19 4 14 18 -4 11 -6 11 -12 0z"/>
<path d="M4506 1661 c-4 -5 -2 -12 3 -15 5 -4 12 -2 15 3 4 5 2 12 -3 15 -5 4
-12 2 -15 -3z"/>
<path d="M4380 1650 c0 -5 5 -10 10 -10 6 0 10 5 10 10 0 6 -4 10 -10 10 -5 0
-10 -4 -10 -10z"/>
<path d="M4470 1635 c0 -8 5 -15 10 -15 6 0 10 7 10 15 0 8 -4 15 -10 15 -5 0
-10 -7 -10 -15z"/>
<path d="M4190 1630 c0 -5 5 -10 10 -10 6 0 10 5 10 10 0 6 -4 10 -10 10 -5 0
-10 -4 -10 -10z"/>
<path d="M4540 1629 c0 -5 5 -7 10 -4 6 3 10 8 10 11 0 2 -4 4 -10 4 -5 0 -10
-5 -10 -11z"/>
<path d="M4535 1600 c-3 -5 1 -10 10 -10 9 0 13 5 10 10 -3 6 -8 10 -10 10 -2
0 -7 -4 -10 -10z"/>
<path d="M2786 2951 l-25 -49 108 -71 c60 -39 112 -71 115 -71 3 0 13 14 22
31 16 32 13 40 -20 52 -20 7 6 27 27 21 19 -4 26 2 40 30 l17 36 -28 6 c-15 3
-65 17 -112 31 -47 13 -93 26 -102 29 -13 4 -24 -8 -42 -45z m121 -43 c18 -7
33 -18 33 -25 0 -17 -3 -17 -44 8 -53 31 -48 38 11 17z"/>
<path d="M5696 2844 c-38 -13 -77 -31 -88 -40 -33 -31 -14 -119 32 -144 21
-11 90 -4 90 10 0 4 -5 21 -11 39 -9 24 -16 31 -28 25 -39 -16 -54 -17 -49 -3
6 19 159 72 171 60 10 -10 -28 -31 -54 -31 -12 0 -11 -10 2 -49 9 -26 15 -31
33 -25 34 10 66 33 67 49 1 8 2 21 3 28 4 20 -23 79 -42 93 -24 18 -46 16
-126 -12z"/>
<path d="M7551 2839 c-142 -25 -285 -131 -344 -256 -30 -63 -32 -75 -32 -173
0 -99 2 -109 34 -174 80 -163 255 -266 451 -266 80 0 182 20 230 45 28 15 30
19 30 75 l0 59 -52 -24 c-113 -52 -250 -58 -363 -15 -79 31 -174 123 -198 194
-21 63 -22 149 -1 210 23 68 101 148 182 188 63 31 73 33 172 33 101 -1 130
-7 243 -50 15 -6 17 0 17 53 l0 60 -79 21 c-94 25 -215 34 -290 20z"/>
<path d="M8420 2839 c-136 -23 -284 -129 -341 -244 -52 -107 -55 -252 -5 -361
33 -71 121 -163 195 -203 150 -79 341 -82 490 -6 79 39 166 127 203 204 31 63
33 72 33 181 0 107 -2 119 -29 174 -61 125 -212 233 -356 256 -75 11 -113 11
-190 -1z m258 -134 c80 -36 163 -122 187 -195 23 -70 17 -169 -14 -233 -31
-64 -99 -129 -169 -164 -51 -25 -67 -28 -162 -28 -93 0 -112 3 -162 27 -202
95 -268 322 -140 485 80 101 179 145 312 140 67 -3 98 -9 148 -32z"/>
<path d="M9520 2839 c-89 -14 -209 -79 -273 -148 -64 -70 -94 -126 -109 -210
-40 -216 114 -435 349 -496 202 -53 429 27 543 191 79 113 92 279 33 405 -60
129 -206 236 -353 259 -75 11 -113 11 -190 -1z m255 -133 c72 -33 137 -93 173
-161 23 -43 27 -62 27 -135 0 -72 -4 -92 -27 -135 -32 -62 -113 -139 -176
-168 -39 -18 -65 -22 -152 -22 -93 0 -112 3 -162 27 -76 35 -142 98 -175 167
-36 73 -39 181 -6 252 40 89 126 162 226 195 70 23 200 13 272 -20z"/>
<path d="M2736 2831 c-3 -4 -10 -20 -16 -35 -10 -27 -8 -28 63 -61 79 -37 74
-42 -18 -20 -33 8 -63 11 -66 7 -4 -4 -10 -21 -14 -39 -6 -31 -6 -32 42 -38
26 -4 83 -12 125 -19 88 -15 89 -14 112 52 l15 42 -119 60 c-65 33 -121 56
-124 51z"/>
<path d="M12630 2819 c-13 -23 -378 -785 -387 -806 -4 -10 10 -13 53 -13 l59
0 49 105 49 105 191 -2 190 -3 50 -102 50 -103 58 0 58 0 -14 33 c-19 42 -387
801 -391 805 -2 2 -9 -6 -15 -19z m89 -371 c38 -79 66 -146 64 -150 -2 -5 -67
-8 -144 -8 -76 0 -139 3 -139 8 0 16 134 292 142 292 5 0 40 -64 77 -142z"/>
<path d="M14923 2420 l-201 -420 60 0 59 0 50 105 51 105 189 0 190 0 49 -105
49 -105 60 0 60 0 -112 233 c-62 127 -153 316 -202 419 -50 103 -93 188 -96
188 -3 0 -96 -189 -206 -420z m280 30 c37 -77 67 -144 67 -150 0 -6 -51 -10
-140 -10 -96 0 -140 4 -140 11 0 17 132 289 140 289 4 0 37 -63 73 -140z"/>
<path d="M10295 2410 l0 -410 58 0 57 0 0 169 0 168 79 7 c204 17 319 112 309
256 -5 73 -40 128 -103 165 -70 42 -137 55 -275 55 l-125 0 0 -410z m302 296
c54 -27 83 -71 83 -126 0 -87 -63 -134 -200 -146 l-70 -7 0 153 0 153 78 -6
c44 -2 93 -12 109 -21z"/>
<path d="M10970 2410 l0 -410 240 0 240 0 0 50 0 50 -185 0 -186 0 3 148 3
147 183 3 182 2 0 50 0 50 -185 0 -186 0 3 108 3 107 183 3 182 2 0 50 0 50
-240 0 -240 0 0 -410z"/>
<path d="M11620 2410 l0 -410 55 0 55 0 2 167 c3 145 5 168 19 171 11 2 55
-51 138 -168 l122 -170 65 0 66 0 -32 43 c-87 118 -215 300 -213 305 1 3 20
11 42 18 70 20 129 62 156 109 63 106 31 229 -74 292 -70 42 -127 53 -276 53
l-125 0 0 -410z m307 296 c51 -26 83 -72 83 -119 0 -94 -76 -150 -205 -151
l-70 -1 -3 134 c-1 74 0 141 3 149 7 20 149 11 192 -12z"/>
<path d="M13050 2770 l0 -50 105 0 105 0 0 -360 0 -360 58 0 57 0 0 357 0 358
108 3 107 3 0 49 0 50 -270 0 -270 0 0 -50z"/>
<path d="M13730 2410 l0 -410 55 0 55 0 0 410 0 410 -55 0 -55 0 0 -410z"/>
<path d="M13983 2793 c7 -15 96 -205 197 -420 101 -216 186 -393 189 -393 5 1
386 795 400 831 2 6 -22 9 -59 7 l-61 -3 -136 -287 c-75 -159 -140 -288 -143
-288 -4 0 -67 129 -142 288 l-134 287 -63 3 -62 3 14 -28z"/>
<path d="M5765 2631 c-66 -15 -120 -31 -119 -36 0 -6 4 -34 8 -62 8 -50 10
-53 38 -53 27 0 29 2 23 29 -5 24 -2 29 16 34 27 7 39 1 39 -19 0 -8 10 -14
24 -14 19 0 25 6 28 27 4 38 35 43 48 9 11 -29 14 -30 40 -16 15 8 17 16 10
42 -4 18 -11 45 -14 61 -4 15 -10 26 -14 26 -4 -1 -61 -13 -127 -28z"/>
<path d="M2660 2571 c-5 -19 -8 -36 -7 -38 9 -8 253 -50 259 -45 3 4 8 21 10
37 l3 30 -128 26 -127 25 -10 -35z"/>
<path d="M2645 2477 c-2 -6 -6 -37 -9 -69 -3 -31 -9 -63 -12 -72 -5 -12 1 -16
24 -16 22 0 31 6 35 21 5 18 11 20 44 15 21 -3 67 -7 103 -8 l65 -3 3 38 c3
37 3 37 -35 38 -116 3 -174 16 -171 36 4 19 -41 39 -47 20z"/>
<path d="M5755 2455 c-62 -8 -81 -14 -83 -27 -7 -35 13 -51 63 -52 45 -1 48
-3 59 -36 10 -32 15 -35 54 -38 28 -2 53 3 68 13 23 15 25 21 22 83 l-3 67
-50 0 c-27 0 -86 -4 -130 -10z m145 -74 c0 -10 -40 -19 -58 -13 -25 8 -11 22
23 22 19 0 35 -4 35 -9z"/>
<path d="M2790 2293 c-41 -7 -95 -17 -120 -21 l-45 -7 -3 -56 -3 -56 73 -8
c40 -4 80 -9 88 -10 8 -1 39 -6 68 -10 l53 -8 -3 39 c-2 31 -8 39 -27 44 -32
7 -38 28 -9 32 19 2 24 10 26 41 4 42 9 41 -98 20z m10 -84 c0 -5 -20 -8 -45
-7 -55 2 -60 16 -7 20 42 4 52 1 52 -13z"/>
<path d="M5706 2247 c-12 -9 -20 -31 -24 -65 -4 -45 -1 -54 22 -77 18 -18 35
-25 54 -23 23 3 27 8 30 41 3 35 2 37 -27 37 -32 0 -49 14 -30 25 18 12 181
-5 176 -18 -2 -7 -20 -13 -40 -15 -35 -3 -37 -5 -37 -38 0 -32 2 -34 34 -34
48 0 65 8 81 41 21 40 18 74 -9 106 -23 26 -30 28 -118 31 -68 3 -98 0 -112
-11z"/>
<path d="M2818 2093 c-15 -2 -34 -13 -42 -24 -9 -13 -16 -16 -21 -10 -8 14
-60 14 -86 1 -15 -9 -19 -22 -19 -65 0 -29 4 -65 10 -79 8 -21 13 -24 37 -17
15 4 72 14 126 21 l97 14 0 39 0 39 -52 -7 c-29 -4 -55 -8 -58 -9 -3 0 -7 3
-10 9 -3 5 18 13 45 18 60 10 70 18 61 51 -7 27 -19 29 -88 19z m-68 -98 c0
-10 -10 -15 -32 -15 -31 1 -32 1 -14 15 25 19 46 19 46 0z"/>
<path d="M5666 2018 c-4 -19 -2 -34 5 -39 10 -6 68 -15 222 -35 l38 -5 -3 38
-3 38 -100 17 c-146 25 -151 24 -159 -14z"/>
<path d="M5650 1908 c-11 -12 -20 -29 -21 -37 0 -9 -2 -26 -5 -39 -7 -37 32
-65 117 -86 89 -22 123 -17 143 22 12 23 15 24 20 10 18 -55 17 -54 28 -28 10
27 -3 70 -22 70 -5 0 -10 8 -10 18 0 29 -40 57 -107 75 -84 23 -118 22 -143
-5z m118 -67 c75 -20 90 -27 80 -37 -8 -8 -146 27 -166 42 -25 19 -2 18 86 -5z"/>
<path d="M2899 1900 c-11 -6 -15 -18 -12 -34 4 -18 0 -26 -16 -31 -25 -8 -41
1 -41 22 0 10 -6 13 -16 9 -9 -3 -20 -6 -26 -6 -6 0 -8 -10 -4 -24 4 -17 1
-26 -10 -30 -25 -10 -31 -7 -37 14 -5 21 -23 25 -45 12 -9 -7 -9 -19 3 -60 9
-28 19 -53 24 -56 6 -4 239 60 249 68 5 6 -36 120 -44 123 -5 1 -16 -2 -25 -7z"/>
<path d="M8155 1846 c-16 -8 -43 -28 -60 -45 -26 -28 -30 -40 -30 -91 0 -67
20 -102 76 -135 46 -27 132 -27 179 1 107 62 107 210 -1 264 -44 23 -120 26
-164 6z m133 -30 c15 -8 37 -25 48 -38 68 -75 7 -188 -100 -188 -84 0 -136 45
-136 117 0 90 106 151 188 109z"/>
<path d="M8496 1837 c-46 -46 -25 -95 53 -128 52 -22 71 -42 71 -75 0 -50 -65
-62 -108 -21 -19 18 -32 23 -41 17 -22 -13 11 -56 54 -70 67 -22 135 16 135
76 0 43 -24 70 -90 102 -45 22 -55 32 -55 52 0 35 46 51 85 28 23 -13 31 -14
40 -4 16 20 -13 38 -70 44 -42 4 -52 1 -74 -21z"/>
<path d="M13984 1850 c-100 -21 -185 -85 -232 -175 -24 -44 -27 -62 -27 -145
0 -84 3 -101 27 -145 35 -67 90 -118 162 -151 54 -25 65 -26 155 -21 53 3 113
10 134 17 l37 11 0 74 0 74 -53 -25 c-101 -45 -193 -41 -257 12 -121 102 -67
327 84 349 57 9 106 0 174 -30 l52 -24 0 74 0 74 -50 15 c-67 20 -155 27 -206
16z"/>
<path d="M14612 1848 c-109 -16 -216 -99 -252 -196 -43 -114 -17 -261 60 -341
64 -66 130 -94 232 -99 101 -5 165 11 235 59 117 81 163 258 103 396 -24 54
-93 123 -151 151 -56 27 -156 40 -227 30z m121 -119 c163 -45 186 -303 34
-382 -46 -24 -131 -26 -173 -4 -72 38 -108 100 -108 188 0 146 111 236 247
198z"/>
<path d="M15250 1841 c-91 -32 -129 -96 -118 -196 8 -67 37 -99 126 -135 104
-44 132 -65 132 -99 0 -28 -29 -62 -63 -75 -18 -6 -80 18 -120 46 -16 11 -23
7 -62 -37 l-44 -50 22 -18 c49 -41 121 -67 185 -67 70 0 112 14 160 55 68 57
89 142 53 213 -26 51 -44 65 -141 110 -47 21 -91 46 -98 55 -20 24 -11 67 19
89 25 19 26 19 80 -1 l54 -21 44 45 45 44 -55 25 c-77 36 -150 41 -219 17z"/>
<path d="M7205 1704 l0 -146 70 4 c117 8 175 56 175 146 0 93 -62 142 -177
142 l-68 0 0 -146z m182 73 c37 -41 41 -72 18 -117 -19 -37 -60 -59 -116 -62
l-44 -3 -3 114 -3 114 57 -5 c50 -4 61 -9 91 -41z"/>
<path d="M7510 1705 l0 -145 85 0 c68 0 85 3 85 15 0 11 -16 15 -67 17 l-68 3
0 55 0 55 68 3 c49 2 67 7 67 17 0 10 -18 15 -67 17 l-68 3 0 35 0 35 68 3
c51 2 67 6 67 17 0 12 -17 15 -85 15 l-85 0 0 -145z"/>
<path d="M7890 1705 l0 -145 64 0 c47 0 65 4 69 14 5 12 -5 16 -46 18 l-52 3
-3 128 c-2 104 -5 127 -17 127 -13 0 -15 -24 -15 -145z"/>
<path d="M8993 1533 l2 -318 68 0 69 0 1 125 2 125 122 3 122 3 3 -128 3 -128
68 -3 67 -3 0 321 0 320 -70 0 -70 0 0 -125 0 -126 -122 3 -123 3 0 123 0 122
-72 0 -73 0 3 -317z"/>
<path d="M9672 1613 c3 -221 5 -241 25 -278 48 -90 117 -125 242 -125 116 1
188 39 234 125 20 37 22 57 25 278 l3 237 -70 0 -71 0 0 -214 c0 -205 -1 -214
-23 -247 -49 -73 -155 -72 -204 0 -22 33 -23 42 -23 247 l0 214 -71 0 -70 0 3
-237z"/>
<path d="M10350 1531 l0 -320 187 2 186 2 3 58 3 57 -120 0 -119 0 0 70 0 69
118 3 117 3 2 58 2 57 -120 0 -119 0 0 70 0 70 118 0 119 0 -2 58 -1 57 -187
3 -187 2 0 -319z"/>
<path d="M10860 1532 l0 -319 65 -2 64 -2 3 128 3 128 125 0 125 0 5 -126 5
-126 63 -1 62 0 0 319 0 319 -65 0 -64 0 -3 -122 -3 -123 -125 0 -125 0 -3
123 -3 122 -64 0 -65 0 0 -318z"/>
<path d="M11530 1645 c0 -232 9 -289 53 -347 46 -59 96 -82 190 -87 131 -6
211 32 260 122 21 39 22 57 25 280 l3 237 -70 0 -71 0 0 -220 0 -220 -27 -30
c-53 -59 -146 -59 -198 0 -19 20 -20 39 -23 246 l-3 224 -70 0 -69 0 0 -205z"/>
<path d="M12210 1530 l0 -321 187 3 187 3 1 57 0 58 -117 0 -118 0 0 70 0 69
117 3 117 3 1 57 0 58 -117 0 -118 0 0 70 0 70 118 0 117 0 -1 57 -2 58 -186
3 -186 2 0 -320z"/>
<path d="M12670 1785 l0 -65 80 0 80 0 0 -255 0 -255 70 0 70 0 0 255 0 255
75 0 75 0 0 65 0 65 -225 0 -225 0 0 -65z"/>
<path d="M13230 1530 l0 -320 188 2 187 3 3 58 3 57 -121 0 -120 0 0 70 0 69
118 3 117 3 3 58 3 57 -121 0 -120 0 0 70 0 70 120 0 120 0 0 60 0 60 -190 0
-190 0 0 -320z"/>
<path d="M5586 1733 c-3 -10 -8 -23 -11 -29 -4 -7 13 -20 40 -30 73 -31 50
-42 -37 -18 -12 3 -22 -5 -33 -26 -9 -18 -15 -33 -13 -35 2 -2 55 -27 118 -55
107 -47 116 -49 128 -33 20 28 10 45 -35 62 -45 16 -59 35 -20 27 83 -17 86
-17 102 14 8 16 11 31 6 35 -9 5 -233 105 -237 105 -1 0 -4 -8 -8 -17z"/>
<path d="M2803 1684 c-17 -7 -36 -21 -41 -30 -15 -27 21 -144 44 -144 7 0 45
15 86 34 40 18 90 41 111 49 20 9 37 19 37 22 0 8 -30 65 -33 65 -2 0 -23 -9
-46 -21 -24 -11 -44 -19 -45 -17 -1 2 -10 15 -19 31 -19 30 -44 33 -94 11z
m67 -62 c0 -12 -59 -31 -65 -22 -3 5 3 13 12 19 21 12 53 14 53 3z"/>
<path d="M5480 1572 c0 -10 12 -29 26 -43 25 -23 26 -23 39 -5 17 23 14 30
-27 50 -39 20 -38 20 -38 -2z"/>
<path d="M2964 1525 c-32 -20 -71 -49 -86 -65 -23 -25 -26 -33 -18 -62 11 -39
52 -78 82 -78 27 0 152 74 171 101 30 42 -20 139 -72 139 -9 0 -44 -16 -77
-35z m106 -43 c0 -10 -131 -92 -148 -92 -23 0 -3 18 66 60 68 40 82 46 82 32z"/>
<path d="M5423 1430 l-23 -28 45 -33 c24 -19 45 -37 45 -41 0 -16 -23 -7 -61
23 l-39 31 -20 -24 c-11 -12 -19 -26 -20 -30 0 -13 85 -68 107 -68 15 0 21 -5
17 -14 -6 -17 46 -56 74 -56 18 0 113 94 111 110 0 5 -197 153 -208 157 -3 1
-16 -11 -28 -27z m131 -145 c23 -17 13 -34 -11 -19 -19 12 -29 34 -16 34 4 0
17 -7 27 -15z"/>
<path d="M3067 1325 c-37 -30 -69 -66 -73 -79 -13 -52 59 -126 107 -111 27 9
136 100 149 126 14 25 6 50 -27 89 -39 47 -75 41 -156 -25z m132 -12 c-1 -14
-137 -122 -144 -115 -8 8 115 121 133 122 6 0 12 -3 11 -7z"/>
<path d="M5307 1292 c-16 -18 -16 -20 3 -37 19 -18 22 -18 38 -2 13 13 14 21
6 34 -15 25 -28 26 -47 5z"/>
<path d="M5225 1210 c-36 -37 -38 -42 -23 -56 12 -13 19 -13 35 -4 17 11 27 4
93 -64 l74 -76 23 22 c13 12 23 26 23 31 0 10 -170 187 -180 187 -3 0 -24 -18
-45 -40z"/>
<path d="M3263 1206 l-28 -25 28 -28 29 -28 15 23 c15 21 43 31 43 13 0 -15
-122 -141 -131 -135 -5 3 2 20 16 38 l25 33 -23 21 c-31 30 -42 28 -66 -12
-29 -46 -27 -62 13 -102 48 -48 90 -47 137 4 101 107 109 134 55 188 -41 41
-74 44 -113 10z"/>
<path d="M5147 1145 c-15 -11 -16 -17 -7 -34 13 -25 18 -25 45 -6 19 15 19 15
0 35 -17 16 -22 17 -38 5z"/>
<path d="M3487 1053 c-4 -3 -7 -44 -7 -90 l0 -83 30 0 c28 0 30 3 30 35 0 19
5 35 10 35 6 0 10 -16 10 -35 0 -31 3 -35 25 -35 25 0 25 1 25 90 0 89 0 90
-25 90 -21 0 -25 -5 -25 -29 0 -17 -4 -33 -10 -36 -6 -4 -10 8 -10 29 0 31 -3
36 -23 36 -13 0 -27 -3 -30 -7z"/>
<path d="M3629 1053 c-3 -33 1 -155 6 -163 9 -14 88 -13 103 2 7 7 12 43 12
91 l0 78 -27 -3 c-26 -3 -27 -4 -24 -70 3 -98 -13 -109 -19 -13 -5 74 -7 80
-27 83 -13 2 -23 0 -24 -5z"/>
<path d="M3770 1058 c0 -2 -1 -42 -3 -91 l-2 -87 78 0 77 0 0 35 c0 19 5 35
10 35 6 0 10 -16 10 -35 0 -31 3 -35 25 -35 25 0 25 1 25 90 0 89 0 90 -25 90
-21 0 -25 -5 -25 -29 0 -17 -4 -33 -10 -36 -6 -4 -10 8 -10 29 0 31 -3 36 -24
36 -28 0 -34 -24 -31 -111 3 -56 2 -56 -21 -45 -26 12 -33 46 -9 46 8 0 15 7
15 15 0 9 -7 18 -15 21 -8 4 -15 12 -15 20 0 8 7 14 15 14 8 0 15 9 15 20 0
17 -7 20 -40 20 -22 0 -40 -1 -40 -2z"/>
<path d="M4012 973 l3 -88 43 -3 c64 -5 72 7 72 100 l0 79 -27 -3 c-26 -3 -27
-4 -24 -70 3 -98 -13 -109 -19 -13 -5 74 -7 80 -28 83 -22 3 -23 2 -20 -85z"/>
<path d="M4147 1053 c-3 -5 -5 -45 -5 -90 l-1 -83 50 0 c37 0 49 4 49 15 0 8
-9 15 -20 15 -27 0 -27 36 1 43 23 6 21 32 -2 32 -7 0 -15 8 -17 18 -3 14 4
17 32 17 l36 0 0 -70 0 -70 30 0 30 0 0 70 c0 56 3 70 15 70 12 0 15 -14 15
-70 l0 -70 74 0 75 0 3 33 c4 32 8 28 23 -18 3 -11 19 -15 60 -15 32 0 54 4
50 9 -3 5 -1 12 5 16 6 3 13 -1 16 -9 5 -12 20 -16 58 -16 l52 0 -4 36 c-5 44
12 39 21 -6 5 -24 12 -30 32 -30 25 0 25 0 25 90 0 83 -1 90 -20 90 -16 0 -20
-7 -20 -35 0 -44 -13 -45 -25 -2 -7 22 -17 33 -32 35 -22 3 -23 0 -24 -80 -1
-82 -2 -82 -11 -33 -20 111 -20 110 -63 110 l-40 0 -11 -80 c-13 -92 -16 -89
-14 13 1 72 1 73 -22 70 -17 -2 -23 -10 -23 -30 -1 -41 -10 -42 -24 -3 -19 53
-48 48 -56 -10 -4 -25 -5 -61 -3 -80 3 -27 1 -34 -10 -30 -7 3 -18 5 -23 5 -5
0 -9 9 -9 20 0 11 7 20 15 20 8 0 15 7 15 15 0 9 -7 18 -15 21 -8 4 -15 12
-15 20 0 8 7 14 15 14 8 0 15 9 15 20 0 19 -7 20 -149 20 -83 0 -152 -3 -154
-7z m519 -83 c1 -17 -3 -30 -7 -30 -5 0 -9 14 -9 30 0 39 15 39 16 0z"/>
<path d="M4886 1047 c-14 -11 -18 -27 -18 -79 0 -37 3 -71 6 -77 4 -6 32 -11
62 -11 l54 0 0 45 c0 43 -1 45 -30 45 -27 0 -29 -2 -24 -29 4 -16 1 -32 -5
-35 -8 -5 -11 13 -11 58 0 37 4 66 10 66 6 0 10 -9 10 -20 0 -15 7 -20 25 -20
20 0 25 5 25 25 0 40 -65 61 -104 32z"/>
<path d="M5025 1047 c-15 -11 -18 -27 -17 -81 1 -37 4 -71 7 -76 9 -14 89 -12
103 2 7 7 12 40 12 76 0 50 -4 68 -17 78 -23 17 -64 18 -88 1z m55 -77 c0 -33
-4 -60 -10 -60 -6 0 -10 27 -10 60 0 33 4 60 10 60 6 0 10 -27 10 -60z"/>
</g>
</svg>
